<svg version="1.1" xmlns="http://www.w3.org/2000/svg" viewBox="0 0 959 766" width="959" height="766">
  <!-- svg-source:excalidraw -->
  
  <defs>
    <style class="style-fonts">
      @font-face {
        font-family: "Virgil";
        src: url("https://excalidraw.com/Virgil.woff2");
      }
      @font-face {
        font-family: "Cascadia";
        src: url("https://excalidraw.com/Cascadia.woff2");
      }
    </style>
  </defs>
  <rect x="0" y="0" width="959" height="766" fill="#0000"></rect><g stroke-linecap="round" transform="translate(10 10) rotate(0 469.5 373)"><path d="M32 0 M32 0 C308.46 -1.38, 585.62 -1.51, 907 0 M32 0 C376.54 -2.85, 720.82 -2.79, 907 0 M907 0 C930.24 0.83, 940.31 11.23, 939 32 M907 0 C928.15 1.27, 937.37 12.39, 939 32 M939 32 C940.7 217.22, 940.34 403.49, 939 714 M939 32 C938.76 168.84, 939.06 305.61, 939 714 M939 714 C939.61 734.23, 929.84 744.64, 907 746 M939 714 C939.38 736.65, 928.75 747.26, 907 746 M907 746 C664.95 748.69, 422.93 749.52, 32 746 M907 746 C713.1 748.05, 519.15 747.52, 32 746 M32 746 C12.55 744.58, -1.2 733.84, 0 714 M32 746 C8.66 746.71, -0.38 735.69, 0 714 M0 714 C3.05 479.19, 2.05 243.1, 0 32 M0 714 C0.02 518.16, 0.41 322.75, 0 32 M0 32 C0.98 12.55, 11.63 -1.24, 32 0 M0 32 C1.41 11.1, 12.11 2.23, 32 0" stroke="#000000" stroke-width="1" fill="none"></path></g><g transform="translate(241 123) rotate(0 224.875 26.00000000000003)"><text x="0" y="0" font-family="Virgil, Segoe UI Emoji" font-size="41.600000000000044px" fill="#000000" text-anchor="start" style="white-space: pre;" direction="ltr" dominant-baseline="text-before-edge">What's the Origin of...</text></g><g stroke-linecap="round" transform="translate(269 192) rotate(0 201 27)"><path d="M13.5 0 M13.5 0 C157.66 0.99, 301.18 0.36, 388.5 0 M13.5 0 C143.25 -2.13, 272.06 -2.5, 388.5 0 M388.5 0 C398.16 -1.19, 400.68 4.22, 402 13.5 M388.5 0 C396.03 0.87, 404.17 6.77, 402 13.5 M402 13.5 C400.68 20.71, 401.87 30.91, 402 40.5 M402 13.5 C402.89 24.58, 402.28 33.85, 402 40.5 M402 40.5 C401.6 47.54, 397.92 53.75, 388.5 54 M402 40.5 C400.08 49.48, 398.96 55.04, 388.5 54 M388.5 54 C250.94 50.64, 113.57 50.61, 13.5 54 M388.5 54 C253.73 55.62, 118.12 55.95, 13.5 54 M13.5 54 C6.05 55.43, 0.66 47.68, 0 40.5 M13.5 54 C5.68 52.95, 2.07 47.21, 0 40.5 M0 40.5 C0.01 34.66, 0.85 25.34, 0 13.5 M0 40.5 C0.52 31.74, 0.49 21.76, 0 13.5 M0 13.5 C-0.17 6.47, 6.06 0.62, 13.5 0 M0 13.5 C2.26 2.31, 4.25 1.87, 13.5 0" stroke="#000000" stroke-width="1" fill="none"></path></g><g stroke-linecap="round" transform="translate(400 263) rotate(0 68.5 25)"><path d="M79.57 0.61 C90.2 1.1, 102.34 3.49, 111.11 6.22 C119.87 8.94, 128.13 13.11, 132.15 16.95 C136.17 20.8, 136.93 25.27, 135.22 29.28 C133.51 33.29, 128.98 37.97, 121.9 40.99 C114.82 44.01, 103.41 45.98, 92.75 47.43 C82.1 48.87, 69.26 50.18, 57.97 49.66 C46.69 49.14, 34.06 47.09, 25.02 44.33 C15.98 41.56, 7.62 36.88, 3.74 33.05 C-0.13 29.23, -0.05 25.33, 1.78 21.37 C3.61 17.41, 7.76 12.57, 14.73 9.28 C21.71 5.99, 30.93 2.91, 43.62 1.65 C56.31 0.38, 81.38 1.23, 90.89 1.7 C100.39 2.17, 100.95 3.99, 100.64 4.48 M96.47 0.85 C107.06 2.26, 118.27 8.23, 124.89 11.73 C131.5 15.24, 135.31 17.85, 136.18 21.86 C137.05 25.86, 134.52 31.99, 130.12 35.77 C125.72 39.54, 118.62 42.12, 109.8 44.51 C100.98 46.9, 88.91 49.57, 77.21 50.12 C65.52 50.67, 50.47 49.35, 39.64 47.81 C28.8 46.28, 18.91 44.18, 12.2 40.91 C5.48 37.64, 0.24 32.54, -0.64 28.19 C-1.53 23.85, 2.12 18.7, 6.88 14.86 C11.64 11.03, 19 7.48, 27.89 5.19 C36.79 2.91, 49.05 1.82, 60.25 1.16 C71.44 0.49, 89.12 0.77, 95.08 1.22 C101.04 1.68, 96.48 3.47, 96.02 3.9" stroke="#000000" stroke-width="1" fill="none"></path></g><g transform="translate(430.4631870146004 275.3223304703363) rotate(0 38.099998474121094 12.5)"><text x="38.099998474121094" y="0" font-family="Virgil, Segoe UI Emoji" font-size="20px" fill="#000000" text-anchor="middle" style="white-space: pre;" direction="ltr" dominant-baseline="text-before-edge">SEARCH</text></g><g stroke-linecap="round" transform="translate(66 341) rotate(0 177 186.5)"><path d="M32 0 M32 0 C103.86 -2.93, 175.06 -2.94, 322 0 M32 0 C130.49 0.65, 228.16 0.76, 322 0 M322 0 C342.26 2, 355.66 10.78, 354 32 M322 0 C342.26 2.15, 354.11 8.49, 354 32 M354 32 C351.99 146.92, 352.16 261.7, 354 341 M354 32 C355.98 96.62, 355.61 160.82, 354 341 M354 341 C354.29 360.66, 343.85 373.77, 322 373 M354 341 C351.81 360.64, 344.56 373.32, 322 373 M322 373 C259.27 372.43, 194.61 373.53, 32 373 M322 373 C218.67 371.43, 114.55 371.68, 32 373 M32 373 C9.06 374.67, 1.13 361.12, 0 341 M32 373 C10.38 372.25, 2.04 361.74, 0 341 M0 341 C1.07 238.57, -1.17 133.17, 0 32 M0 341 C0.56 218.83, 0.16 98.08, 0 32 M0 32 C-1.28 9.39, 10.76 -0.81, 32 0 M0 32 C-0.13 12.44, 12.32 -1.13, 32 0" stroke="#000000" stroke-width="1" fill="none"></path></g><g transform="translate(160 354) rotate(0 83.19999694824219 12.5)"><text x="0" y="0" font-family="Virgil, Segoe UI Emoji" font-size="20px" fill="#000000" text-anchor="start" style="white-space: pre;" direction="ltr" dominant-baseline="text-before-edge">PAST SEARCHES</text></g><g stroke-linecap="round" transform="translate(449 341) rotate(0 214 186.5)"><path d="M32 0 M32 0 C136.73 -1.56, 241.38 -1.16, 396 0 M32 0 C106.17 0.37, 181.26 -0.19, 396 0 M396 0 C417.64 -0.94, 428.01 8.95, 428 32 M396 0 C419.46 -2.02, 428.08 11.81, 428 32 M428 32 C430.55 100.1, 429.64 169.67, 428 341 M428 32 C427.24 99.12, 427.41 165.44, 428 341 M428 341 C428.49 363.68, 417.91 374.55, 396 373 M428 341 C429.85 363.9, 416.39 372.5, 396 373 M396 373 C298.14 373.76, 201.61 373.47, 32 373 M396 373 C282.61 373.42, 168.87 372.84, 32 373 M32 373 C9.21 374.79, 0.42 361.89, 0 341 M32 373 C11.81 374.78, -1.33 361.89, 0 341 M0 341 C0.34 250.1, -0.18 161.35, 0 32 M0 341 C0.73 278.6, 1.55 215.96, 0 32 M0 32 C0.21 10.92, 9.75 -0.11, 32 0 M0 32 C-0.87 8.65, 10.5 0.71, 32 0" stroke="#000000" stroke-width="1" fill="none"></path></g><g transform="translate(561 354) rotate(0 107.11250305175781 25)"><text x="107.11250305175781" y="0" font-family="Virgil, Segoe UI Emoji" font-size="20px" fill="#000000" text-anchor="middle" style="white-space: pre;" direction="ltr" dominant-baseline="text-before-edge">WORD OF THE DAY /</text><text x="107.11250305175781" y="25" font-family="Virgil, Segoe UI Emoji" font-size="20px" fill="#000000" text-anchor="middle" style="white-space: pre;" direction="ltr" dominant-baseline="text-before-edge">SEARCH RESULT</text></g></svg>